# xmcd CD database file
#
# Track frame offsets:
#	150
#	15484
#	34460
#	58349
#	82755
#	117451
#	123455
#	137719
#	162991
#	180259
#	200953
#	211825
#
# Disc length: 2999 seconds
#
# Revision: 1
# Processed by: cddbd v1.5.2PL0 Copyright (c) Steve Scherf et al.
# Submitted via: CDex 1.51
#
DISCID=a90bb50c
DTITLE=Bone-Box - Death of a Prize Fighter
DYEAR=2006
DGENRE=Country
TTITLE0=Song for the Wood That Wouldn't
TTITLE1=Dragging Wires
TTITLE2=Talking Christ Down from the Cross
TTITLE3=The Devil is in the Detail
TTITLE4=St. Jay's Infirmary
TTITLE5=Return to St. Jay's Infirmary
TTITLE6=Do You Feel You've Been Warned?
TTITLE7=All My Problems are Caused by Other People
TTITLE8=Foul Weather
TTITLE9=Some Spirits Said...
TTITLE10=That Secret War
TTITLE11=Toasting the God of Graceless Living
EXTD=YEAR: 2006
EXTT0=
EXTT1=
EXTT2=
EXTT3=
EXTT4=
EXTT5=
EXTT6=
EXTT7=
EXTT8=
EXTT9=
EXTT10=
EXTT11=
PLAYORDER=
